<svg width="22" height="22" viewBox="0 0 22 22" fill="none" xmlns="http://www.w3.org/2000/svg">
<path d="M12.2911 5.84861C11.9302 5.43057 11.2987 5.38426 10.8807 5.74517C10.4626 6.10609 10.4163 6.73755 10.7772 7.1556L11.5342 6.5021L12.2911 5.84861ZM15.2493 10.8053L16.0286 11.432C16.3311 11.0558 16.3217 10.5172 16.0062 10.1518L15.2493 10.8053ZM10.9073 14.6088C10.5612 15.0392 10.6295 15.6687 11.0599 16.0148C11.4903 16.3609 12.1198 16.2926 12.4659 15.8622L11.6866 15.2355L10.9073 14.6088ZM6.49846 9.95788C5.94626 9.96751 5.50643 10.423 5.51606 10.9752C5.5257 11.5274 5.98116 11.9672 6.53336 11.9576L6.51591 10.9577L6.49846 9.95788ZM11.5342 6.5021L10.7772 7.1556L14.4924 11.4588L15.2493 10.8053L16.0062 10.1518L12.2911 5.84861L11.5342 6.5021ZM15.2493 10.8053L14.47 10.1786L10.9073 14.6088L11.6866 15.2355L12.4659 15.8622L16.0286 11.432L15.2493 10.8053ZM15.2493 10.8053L15.2319 9.80543L6.49846 9.95788L6.51591 10.9577L6.53336 11.9576L15.2668 11.8051L15.2493 10.8053ZM17.9912 17.7462L17.2719 17.0516C13.8642 20.5803 8.24122 20.6784 4.71252 17.2708L4.01787 17.9901L3.32321 18.7095C7.64647 22.8844 14.5356 22.7642 18.7105 18.4409L17.9912 17.7462ZM4.01787 17.9901L4.71252 17.2708C1.18382 13.8632 1.08567 8.24018 4.4933 4.71148L3.77396 4.01682L3.05462 3.32216C-1.1203 7.64542 -1.00005 14.5346 3.32321 18.7095L4.01787 17.9901ZM3.77396 4.01682L4.4933 4.71148C7.90093 1.18278 13.5239 1.08463 17.0526 4.49225L17.7473 3.77291L18.4419 3.05358C14.1187 -1.12135 7.22955 -1.0011 3.05462 3.32216L3.77396 4.01682ZM17.7473 3.77291L17.0526 4.49225C20.5813 7.89988 20.6795 13.5229 17.2719 17.0516L17.9912 17.7462L18.7105 18.4409C22.8855 14.1176 22.7652 7.2285 18.4419 3.05358L17.7473 3.77291Z" fill="black"/>
</svg>
