<svg width="109" height="144" viewBox="0 0 109 144" fill="none" xmlns="http://www.w3.org/2000/svg">
<path d="M96.4884 142.751L45.4756 65.407V142.751H34.0957V48.1733H45.7268L96.7396 125.375V48.1733H108.12V142.751H96.4884Z" fill="black"/>
<path d="M107.574 48.7194V142.205H96.7843L46.94 66.6302L44.9414 63.5941V142.216H34.6536V48.7304H45.4438L95.2881 124.174L97.2867 127.21V48.7304H107.574M108.667 47.6273H96.1945V123.562L46.0335 47.6273H33.5615V143.297H46.0335V67.2309L96.1945 143.297H108.667V47.6273Z" fill="white"/>
<path d="M0.545898 94.9815V0.546021H29.7382C40.015 0.546021 49.0469 2.48996 56.5606 6.31237C64.0526 10.1348 69.8845 15.661 73.8707 22.7488C77.8679 29.8585 79.8992 38.3442 79.8992 47.9767C79.8992 57.6092 77.8679 66.0731 73.8707 73.1282C69.8736 80.1723 64.0526 85.633 56.5606 89.3571C49.0469 93.0922 40.015 94.9924 29.7382 94.9924H0.545898V94.9815ZM11.9258 85.7968H29.7382C42.1665 85.7968 51.799 82.444 58.3626 75.8367C64.9263 69.2294 68.2573 59.848 68.2573 47.9658C68.2573 36.0835 64.9044 26.5056 58.2971 19.7563C51.6898 13.0071 42.0791 9.58873 29.7382 9.58873H11.9258V85.7859V85.7968Z" fill="black"/>
<path d="M29.7384 1.09212C39.9278 1.09212 48.8723 3.01422 56.3096 6.79295C63.7033 10.5608 69.4587 16.0214 73.4013 23.0109C77.3547 30.0333 79.3642 38.4316 79.3642 47.9658C79.3642 57.5 77.3547 65.8766 73.4122 72.8552C69.4696 79.8011 63.7251 85.1852 56.3315 88.8657C48.8941 92.568 39.9497 94.4355 29.7493 94.4355H1.10302V1.09212H29.7493M11.3799 86.3429H29.7384C42.3196 86.3429 52.0831 82.9355 58.745 76.2189C65.4179 69.5024 68.7925 60.001 68.7925 47.9658C68.7925 35.9307 65.3851 26.2327 58.6795 19.3742C51.963 12.5157 42.2213 9.04271 29.7274 9.04271H11.3689V86.332M29.7384 0H0V95.5276H29.7384C40.1572 95.5276 49.1781 93.6273 56.812 89.8377C64.435 86.048 70.2887 80.5656 74.3514 73.3904C78.4141 66.2152 80.4454 57.7403 80.4454 47.9658C80.4454 38.1914 78.4141 29.6947 74.3514 22.4758C70.2887 15.2569 64.435 9.70895 56.812 5.82101C49.1781 1.93307 40.1572 0 29.7384 0ZM12.472 85.2508V10.1458H29.7384C41.981 10.1458 51.3732 13.4877 57.9041 20.1496C64.435 26.8224 67.7004 36.0945 67.7004 47.9768C67.7004 59.859 64.4568 68.9236 57.9696 75.4544C51.4825 81.9853 42.0684 85.2508 29.7384 85.2508H12.472Z" fill="white"/>
<path d="M45.4756 48.2386H34.0957V142.674H45.4756V48.2386Z" fill="black"/>
<path d="M44.9297 48.785V142.128H34.6419V48.785H44.9297ZM46.0218 47.6929H33.5498V143.221H46.0218V47.6929Z" fill="white"/>
<path d="M39.7854 39.655C36.9131 39.655 34.5869 37.3179 34.5869 34.4566C34.5869 31.5952 36.9241 29.2581 39.7854 29.2581C42.6468 29.2581 44.9839 31.5952 44.9839 34.4566C44.9839 37.3179 42.6468 39.655 39.7854 39.655Z" fill="black"/>
</svg>
